<svg version="1.1" id="Layer_1" xmlns="http://www.w3.org/2000/svg" xmlns:xlink="http://www.w3.org/1999/xlink" viewBox="0 0 193.8 63.2">
<path fill="#353532" stroke="#FFFFFF" stroke-miterlimit="10" d="M24.3,55.7H142V8.5H24.3C11.3,8.5,0.7,19,0.7,32.1l0,0
	C0.7,45.1,11.3,55.7,24.3,55.7z"/>
<circle fill="#1C75BC" cx="162.1" cy="31.6" r="31.6"/>
<g>
	<path fill="#F5F5F4" d="M24.8,25.7c2.1,0.1,4.2,0.1,6.2,0.3c3,0.4,4.8,2.7,4.8,5.6c0,2.8-1.9,5.2-4.9,5.6c-2,0.2-4,0-6.1,0
		C24.8,33.6,24.8,29.7,24.8,25.7z M27.5,35.3c2,0,3.9,0.1,5.1-1.8c0.8-1.3,0.7-2.8-0.2-4c-1.2-1.6-3-1.6-4.9-1.5
		C27.5,30.4,27.5,32.8,27.5,35.3z"/>
	<path fill="#F5F5F4" d="M56.3,29.1c0.6,1.9,1.1,3.7,1.7,5.9c0.6-2.1,1.1-3.9,1.7-5.8c0.8,0,1.6,0,2.5,0c-0.6,2.1-1.3,4.1-1.9,6.1
		c-0.7,2.2-0.6,2.2-3,2.2c-0.2,0-0.5,0-0.8,0c-0.4-1.7-0.9-3.4-1.4-5.4c-0.5,2-1,3.6-1.4,5.3c-1.1,0-2.1,0-3.1,0
		c-0.8-2.7-1.7-5.5-2.5-8.3c0.9,0,1.7,0,2.6,0c0.5,1.8,1.1,3.6,1.6,5.4c0.1,0,0.1,0,0.2,0c0.4-1.4,0.8-2.8,1.1-4.2
		c0.3-1.3,0.6-1.3,1.7-1.3C55.5,29.1,55.9,29.1,56.3,29.1z"/>
	<path fill="#F5F5F4" d="M110.7,25.4c0,4,0,8,0,12.1c-0.9-0.2-1.9,0.5-2.6-0.6c-2,1.3-4.2,1.2-5.6-0.4c-1.3-1.5-1.2-4.9,0.2-6.4
		c1.5-1.6,3.5-1.7,5.5-0.2c0-1.5,0-2.9,0-4.4C109.1,25.4,109.8,25.4,110.7,25.4z M108.3,33.2c0-1.4-0.8-2.2-2.1-2.2
		c-1.3,0-2.1,1-2.1,2.4c0,1.3,1,2.2,2.2,2.2C107.5,35.5,108.3,34.6,108.3,33.2z"/>
	<path fill="#F5F5F4" d="M99.3,37.4c-0.8,0-1.5,0-2.3,0c-0.1-0.3-0.1-0.5-0.2-0.9c-1.6,1.6-3.4,1.6-5.1,0.5
		c-0.5-0.3-0.9-0.8-1.1-1.3c-1.6-2.6,0.1-6.5,3-7c1.2-0.2,2.3,0.2,3.1,1.1c0.6-1.3,1.7-0.5,2.6-0.8C99.3,31.9,99.3,34.6,99.3,37.4z
		 M97,33.2c0-1.3-1-2.4-2.2-2.3c-1.2,0-2.2,1.1-2.1,2.4c0,1.3,1,2.2,2.2,2.2C96,35.6,97,34.6,97,33.2z"/>
	<path fill="#F5F5F4" d="M83.7,37.8c-3-0.1-4.6-1.5-4.6-4.5c0.1-2.8,1.8-4.5,4.6-4.6c2.8,0,4.7,1.9,4.7,4.6S86.5,37.8,83.7,37.8z
		 M83.7,30.9c-1.2,0-2.1,1.1-2.1,2.4s1,2.3,2.2,2.2c1.2,0,2.1-1.1,2.1-2.3C85.9,31.9,84.9,30.9,83.7,30.9z"/>
	<path fill="#F5F5F4" d="M46.9,33.2c0,2.7-1.8,4.5-4.6,4.6c-2.8,0-4.8-1.8-4.8-4.5s1.9-4.5,4.7-4.5C44.8,28.7,46.9,30.3,46.9,33.2z
		 M40.1,33.2c0,1.4,0.9,2.4,2.1,2.4c1.2,0,2.1-0.9,2.1-2.2c0-1.4-0.8-2.4-2.1-2.4C41.1,30.9,40.1,31.9,40.1,33.2z"/>
	<path fill="#F5F5F4" d="M66.6,37.4c-0.9,0-1.6,0-2.4,0c0-2.8,0-5.5,0-8.3c0.9,0.2,1.9-0.7,2.5,0.7c1.1-1.1,2.4-1.4,3.8-0.8
		s1.8,1.9,1.8,3.4c0,1.6,0,3.3,0,5c-0.8,0-1.5,0-2.5,0c0-1.4,0.1-2.9,0-4.4c0-0.6-0.3-1.3-0.7-1.6c-0.3-0.3-1.2-0.4-1.5-0.2
		c-0.5,0.3-1,1-1,1.6c-0.2,1.1-0.1,2.3-0.1,3.5C66.6,36.5,66.6,36.9,66.6,37.4z"/>
	<path fill="#F5F5F4" d="M74.7,25.3c0.8,0,1.5,0,2.3,0c0,2,0,4.1,0,6.1s0,4,0,6c-0.8,0-1.5,0-2.3,0C74.7,33.4,74.7,29.4,74.7,25.3z"
		/>
</g>
<path fill="#F5F5F4" d="M162.2,43.7c-2.3,0-4.6,0-7,0c-3.6,0-5.5-1.9-5.5-5.4c0-1.2,0-2.3,0-3.5c0-0.8,0.5-1.2,1.3-1.1
	c0.9,0,1.3,0.5,1.3,1.4c0,1.2,0,2.3,0,3.5c0,1.8,0.9,2.6,2.6,2.7c4.8,0,9.6,0,14.4,0c1.6,0,2.5-0.9,2.6-2.5c0-1.2,0-2.3,0-3.5
	c0-0.9,0.3-1.6,1.4-1.6c1,0,1.2,0.7,1.2,1.6c0,1.2,0,2.4,0,3.6c-0.1,3-2,4.9-5,4.9C167,43.8,164.6,43.7,162.2,43.7z"/>
<path fill="#F5F5F4" d="M163.7,33.4c0.8-0.9,1.7-1.9,2.5-2.7c0.6-0.5,1.2-0.6,1.8,0c0.5,0.6,0.5,1.2-0.1,1.8c-1.7,1.7-3.3,3.3-5,5
	c-0.6,0.7-1.3,0.6-1.9,0c-1.6-1.6-3.3-3.3-4.9-4.9c-0.6-0.6-0.7-1.3-0.1-1.9c0.6-0.6,1.3-0.5,1.9,0.1c0.8,0.8,1.6,1.7,2.4,2.5
	c0.1,0,0.2-0.1,0.4-0.1c0-0.4,0-0.8,0-1.2c0-3.9,0-7.8,0-11.7c0-0.3,0-0.6,0-0.8c0-0.9,0.4-1.5,1.3-1.5c0.9,0,1.2,0.7,1.2,1.6
	c0,4.2,0,8.5,0,12.7c0,0.3,0,0.7,0,1C163.5,33.3,163.6,33.3,163.7,33.4z"/>
</svg>
